<?xml version="1.0" standalone="no"?>
<svg xmlns:xlink="http://www.w3.org/1999/xlink" id="wave" style="transform:rotate(180deg); transition: 0.3s" viewBox="0 0 1440 490" version="1.1" xmlns="http://www.w3.org/2000/svg"><defs><linearGradient id="sw-gradient-0" x1="0" x2="0" y1="1" y2="0"><stop stop-color="rgba(244, 104, 60, 1)" offset="0%"/><stop stop-color="rgba(244, 104, 60, 1)" offset="100%"/></linearGradient></defs><path style="transform:translate(0, 0px); opacity:1" fill="url(#sw-gradient-0)" d="M0,0L21.8,8.2C43.6,16,87,33,131,81.7C174.5,131,218,212,262,253.2C305.5,294,349,294,393,269.5C436.4,245,480,196,524,155.2C567.3,114,611,82,655,57.2C698.2,33,742,16,785,32.7C829.1,49,873,98,916,122.5C960,147,1004,147,1047,147C1090.9,147,1135,147,1178,147C1221.8,147,1265,147,1309,163.3C1352.7,180,1396,212,1440,245C1483.6,278,1527,310,1571,277.7C1614.5,245,1658,147,1702,147C1745.5,147,1789,245,1833,285.8C1876.4,327,1920,310,1964,326.7C2007.3,343,2051,392,2095,359.3C2138.2,327,2182,212,2225,212.3C2269.1,212,2313,327,2356,343C2400,359,2444,278,2487,204.2C2530.9,131,2575,65,2618,73.5C2661.8,82,2705,163,2749,212.3C2792.7,261,2836,278,2880,269.5C2923.6,261,2967,229,3011,245C3054.5,261,3098,327,3120,359.3L3141.8,392L3141.8,490L3120,490C3098.2,490,3055,490,3011,490C2967.3,490,2924,490,2880,490C2836.4,490,2793,490,2749,490C2705.5,490,2662,490,2618,490C2574.5,490,2531,490,2487,490C2443.6,490,2400,490,2356,490C2312.7,490,2269,490,2225,490C2181.8,490,2138,490,2095,490C2050.9,490,2007,490,1964,490C1920,490,1876,490,1833,490C1789.1,490,1745,490,1702,490C1658.2,490,1615,490,1571,490C1527.3,490,1484,490,1440,490C1396.4,490,1353,490,1309,490C1265.5,490,1222,490,1178,490C1134.5,490,1091,490,1047,490C1003.6,490,960,490,916,490C872.7,490,829,490,785,490C741.8,490,698,490,655,490C610.9,490,567,490,524,490C480,490,436,490,393,490C349.1,490,305,490,262,490C218.2,490,175,490,131,490C87.3,490,44,490,22,490L0,490Z"/></svg>